<mxfile host="app.diagrams.net" modified="2023-08-19T09:34:00.525Z" agent="Mozilla/5.0 (Windows NT 10.0; Win64; x64) AppleWebKit/537.36 (KHTML, like Gecko) Chrome/115.0.0.0 Safari/537.36" version="21.6.8" etag="4mJScWsHvIjWCmJSYnhv" type="github">
  <diagram name="Page-1" id="wx5WX3dfA9qjfH6iPb0g">
    <mxGraphModel>
      <root>
        <mxCell id="0" />
        <mxCell id="1" parent="0" />
      </root>
    </mxGraphModel>
  </diagram>
</mxfile>
